# Blender v2.79 (sub 0) OBJ File: ''
# www.blender.org
mtllib SpringA.mtl
o Vis
v 0.212663 0.131433 0.000000
v 0.242366 0.051477 0.000000
v 0.211986 0.100634 0.079538
v 0.211986 0.100634 -0.079538
v 0.162829 0.180172 -0.049157
v 0.142709 0.142710 -0.142709
v 0.079538 0.211986 -0.100634
v 0.049157 0.162829 -0.180172
v 0.000000 0.212663 -0.131433
v -0.049157 0.162829 -0.180172
v 0.000000 0.088200 -0.230909
v -0.100634 0.079538 -0.211986
v -0.051477 0.000000 -0.242366
v -0.131433 0.000000 -0.212663
v 0.051477 0.000000 -0.242366
v 0.100634 0.079538 -0.211986
v 0.131433 0.000000 -0.212663
v 0.180172 0.049157 -0.162829
v 0.180172 -0.049157 -0.162829
v 0.100634 -0.079538 -0.211986
v 0.051477 0.000000 -0.242366
v 0.000000 -0.088200 -0.230909
v -0.051477 0.000000 -0.242366
v -0.100634 -0.079538 -0.211986
v -0.131433 0.000000 -0.212663
v 0.049156 -0.162829 -0.180172
v -0.049157 -0.162829 -0.180172
v 0.000000 -0.212663 -0.131433
v 0.079538 -0.211986 -0.100634
v 0.142709 -0.142709 -0.142709
v 0.211986 -0.100634 -0.079538
v 0.162829 -0.180172 -0.049157
v 0.212663 -0.131433 0.000000
v 0.242366 -0.051477 0.000000
v 0.162829 -0.180172 0.049157
v 0.211986 -0.100634 0.079538
v 0.142709 -0.142710 0.142709
v 0.079538 -0.211986 0.100634
v 0.049157 -0.162829 0.180172
v 0.000000 -0.212663 0.131433
v 0.100634 -0.079538 0.211986
v 0.180172 -0.049157 0.162829
v 0.131433 0.000000 0.212663
v 0.000000 -0.242366 -0.051477
v 0.000000 -0.242366 0.051477
v -0.079538 -0.211986 0.100634
v -0.049156 -0.162829 0.180172
v 0.049157 -0.162829 0.180172
v 0.000000 -0.088200 0.230909
v -0.100634 -0.079538 0.211986
v -0.051477 0.000000 0.242366
v -0.131433 0.000000 0.212663
v 0.051477 0.000000 0.242366
v 0.100634 -0.079538 0.211986
v 0.131433 0.000000 0.212663
v -0.180172 -0.049157 0.162829
v -0.142709 -0.142710 0.142709
v -0.211986 -0.100634 0.079538
v -0.162829 -0.180172 0.049157
v -0.212663 -0.131433 0.000000
v -0.242366 -0.051477 0.000000
v -0.162829 -0.180172 -0.049157
v -0.211986 -0.100634 -0.079538
v -0.142710 -0.142709 -0.142710
v -0.079538 -0.211986 -0.100634
v -0.049157 -0.162829 -0.180172
v -0.100634 -0.079538 -0.211986
v -0.180172 -0.049156 -0.162829
v -0.131433 0.000000 -0.212663
v -0.088200 -0.230909 0.000000
v -0.211986 -0.100634 -0.079538
v -0.230909 0.000000 -0.088200
v -0.180172 -0.049156 -0.162829
v -0.180172 0.049157 -0.162829
v -0.131433 0.000000 -0.212663
v -0.211986 0.100634 -0.079538
v -0.242366 0.051477 0.000000
v -0.212663 0.131433 0.000000
v -0.211986 0.100634 0.079538
v -0.162829 0.180172 0.049157
v -0.142710 0.142709 0.142709
v -0.079538 0.211986 0.100634
v -0.049157 0.162829 0.180172
v 0.000000 0.212663 0.131433
v 0.000000 0.242366 0.051477
v 0.079538 0.211986 0.100634
v 0.049156 0.162829 0.180172
v 0.000000 0.088200 0.230909
v 0.100634 0.079538 0.211986
v 0.051477 0.000000 0.242366
v 0.131433 0.000000 0.212663
v -0.051477 0.000000 0.242366
v -0.100634 0.079538 0.211986
v -0.180172 0.049157 0.162829
v -0.088200 0.230909 0.000000
v -0.162829 0.180172 -0.049157
v -0.211986 0.100634 -0.079538
v -0.142709 0.142709 -0.142710
v -0.180172 0.049157 -0.162829
v -0.100634 0.079538 -0.211986
v -0.131433 0.000000 -0.212663
v -0.079538 0.211986 -0.100634
v -0.049157 0.162829 -0.180172
v 0.000000 0.212663 -0.131433
v 0.000000 0.242366 -0.051477
v -0.230909 0.000000 0.088200
v 0.079538 0.211986 -0.100634
v 0.088200 0.230909 0.000000
v 0.162829 0.180172 -0.049157
v 0.162829 0.180172 0.049157
v 0.212663 0.131433 0.000000
v 0.211986 0.100634 0.079538
v 0.142709 0.142709 0.142709
v 0.049156 0.162829 0.180172
v 0.100634 0.079538 0.211986
v 0.180172 0.049157 0.162829
v 0.131433 0.000000 0.212663
v 0.088200 -0.230909 0.000000
v 0.230909 0.000000 -0.088200
v 0.230909 0.000000 0.088200
v 0.211986 -0.100634 0.079538
v 0.180172 -0.049157 0.162829
v 0.180172 0.049157 0.162829
v 0.131433 0.000000 0.212663
vt 0.115423 0.599220
vt 0.148596 0.651241
vt 0.093608 0.655846
vt 0.117375 0.705208
vt 0.055167 0.703587
vt 0.087295 0.762311
vt 0.022959 0.767940
vt 0.060448 0.820473
vt 0.007119 0.823998
vt 0.032303 0.876364
vt 0.098736 0.873724
vt 0.072348 0.932611
vt 0.136443 0.926389
vt 0.108816 0.973841
vt 0.165103 0.864401
vt 0.125550 0.816166
vt 0.181377 0.809556
vt 0.150530 0.762009
vt 0.209085 0.761792
vt 0.237715 0.815526
vt 0.203087 0.866514
vt 0.271100 0.870952
vt 0.238903 0.926739
vt 0.303888 0.926479
vt 0.271625 0.971169
vt 0.303861 0.815752
vt 0.339124 0.866382
vt 0.360477 0.810517
vt 0.331622 0.762118
vt 0.270452 0.761294
vt 0.241566 0.704869
vt 0.299319 0.704803
vt 0.270852 0.656714
vt 0.214429 0.651461
vt 0.327408 0.650956
vt 0.292488 0.600112
vt 0.360575 0.595556
vt 0.393593 0.650830
vt 0.428667 0.600057
vt 0.450234 0.656186
vt 0.393153 0.539933
vt 0.328138 0.539883
vt 0.360699 0.495347
vt 0.389172 0.762169
vt 0.421462 0.704657
vt 0.478965 0.704647
vt 0.506882 0.650746
vt 0.471863 0.599926
vt 0.539975 0.595417
vt 0.573085 0.650787
vt 0.608086 0.599963
vt 0.629723 0.656348
vt 0.572479 0.539768
vt 0.507456 0.539769
vt 0.539962 0.495207
vt 0.601028 0.704696
vt 0.539992 0.705371
vt 0.568738 0.762208
vt 0.511235 0.762218
vt 0.539967 0.810680
vt 0.596608 0.816035
vt 0.483319 0.816119
vt 0.518337 0.866939
vt 0.450225 0.871448
vt 0.417115 0.816078
vt 0.382114 0.866902
vt 0.417721 0.927097
vt 0.482745 0.927096
vt 0.450239 0.971658
vt 0.450208 0.761495
vt 0.561533 0.866808
vt 0.629626 0.871309
vt 0.597049 0.926932
vt 0.662063 0.926982
vt 0.629502 0.971518
vt 0.697713 0.866752
vt 0.662792 0.815909
vt 0.719349 0.810151
vt 0.690881 0.762062
vt 0.748634 0.761996
vt 0.719748 0.705571
vt 0.781115 0.705073
vt 0.752485 0.651339
vt 0.808823 0.657309
vt 0.839670 0.704855
vt 0.864650 0.650699
vt 0.787113 0.600351
vt 0.719101 0.595912
vt 0.751298 0.540126
vt 0.686312 0.540386
vt 0.718576 0.495696
vt 0.651076 0.600482
vt 0.686339 0.651112
vt 0.658578 0.704747
vt 0.810301 0.761161
vt 0.775772 0.815404
vt 0.739582 0.865517
vt 0.807221 0.870857
vt 0.773425 0.925869
vt 0.838235 0.927284
vt 0.804755 0.971124
vt 0.841605 0.815624
vt 0.874777 0.867645
vt 0.896593 0.811019
vt 0.872825 0.761656
vt 0.629788 0.761451
vt 0.935033 0.763276
vt 0.902905 0.704554
vt 0.967241 0.698924
vt 0.929752 0.646391
vt 0.983081 0.642866
vt 0.957897 0.590500
vt 0.891463 0.593141
vt 0.825097 0.602464
vt 0.853756 0.540476
vt 0.917851 0.534253
vt 0.881383 0.493023
vt 0.360412 0.705414
vt 0.179899 0.705704
vt 0.182979 0.596008
vt 0.250619 0.601348
vt 0.216776 0.540996
vt 0.151966 0.539581
vt 0.185446 0.495740
vn 0.8492 0.3879 0.3584
vn 0.9861 0.1664 -0.0000
vn 0.8507 0.5257 -0.0000
vn 0.8492 0.3879 -0.3584
vn 0.6277 0.7463 -0.2215
vn 0.5773 0.5774 -0.5773
vn 0.3584 0.8492 -0.3879
vn 0.2215 0.6277 -0.7463
vn 0.0000 0.8507 -0.5257
vn -0.2215 0.6277 -0.7463
vn 0.0000 0.3568 -0.9342
vn -0.3879 0.3584 -0.8492
vn -0.1664 0.0000 -0.9861
vn -0.5258 0.0000 -0.8506
vn 0.1664 0.0000 -0.9861
vn 0.3879 0.3584 -0.8492
vn 0.5257 -0.0000 -0.8507
vn 0.7463 0.2215 -0.6277
vn 0.7463 -0.2215 -0.6277
vn 0.3879 -0.3584 -0.8492
vn 0.0000 -0.3568 -0.9342
vn -0.3879 -0.3584 -0.8492
vn 0.2215 -0.6277 -0.7463
vn -0.2215 -0.6277 -0.7463
vn 0.0000 -0.8507 -0.5257
vn 0.3584 -0.8492 -0.3879
vn 0.5773 -0.5774 -0.5774
vn 0.8492 -0.3879 -0.3584
vn 0.6277 -0.7463 -0.2215
vn 0.8507 -0.5257 0.0000
vn 0.9861 -0.1664 0.0000
vn 0.6277 -0.7463 0.2215
vn 0.8492 -0.3879 0.3584
vn 0.5773 -0.5774 0.5773
vn 0.3584 -0.8492 0.3879
vn 0.2215 -0.6277 0.7463
vn -0.0000 -0.8507 0.5257
vn 0.3879 -0.3584 0.8492
vn 0.7463 -0.2215 0.6277
vn 0.5257 0.0000 0.8507
vn -0.0000 -0.9861 -0.1664
vn -0.0000 -0.9861 0.1664
vn -0.3584 -0.8492 0.3879
vn -0.2215 -0.6277 0.7463
vn -0.0000 -0.3568 0.9342
vn -0.3879 -0.3584 0.8492
vn -0.1664 -0.0000 0.9861
vn -0.5257 -0.0000 0.8507
vn 0.1664 -0.0000 0.9861
vn 0.5258 -0.0000 0.8506
vn -0.7463 -0.2215 0.6277
vn -0.5773 -0.5774 0.5774
vn -0.8492 -0.3879 0.3584
vn -0.6277 -0.7463 0.2215
vn -0.8507 -0.5257 -0.0000
vn -0.9861 -0.1664 -0.0000
vn -0.6277 -0.7463 -0.2215
vn -0.8492 -0.3879 -0.3584
vn -0.5774 -0.5773 -0.5774
vn -0.3584 -0.8492 -0.3879
vn -0.7463 -0.2215 -0.6277
vn -0.5257 0.0000 -0.8507
vn -0.3568 -0.9342 0.0000
vn -0.9342 -0.0000 -0.3568
vn -0.7463 0.2215 -0.6277
vn -0.8492 0.3879 -0.3584
vn -0.9861 0.1664 0.0000
vn -0.8507 0.5257 0.0000
vn -0.8492 0.3879 0.3584
vn -0.6277 0.7463 0.2215
vn -0.5774 0.5773 0.5773
vn -0.3584 0.8492 0.3879
vn -0.2215 0.6277 0.7463
vn 0.0000 0.8507 0.5257
vn 0.0000 0.9861 0.1664
vn 0.3584 0.8492 0.3879
vn 0.2215 0.6277 0.7463
vn 0.0000 0.3568 0.9342
vn 0.3879 0.3584 0.8492
vn -0.3879 0.3584 0.8492
vn -0.7463 0.2215 0.6277
vn -0.3568 0.9342 -0.0000
vn -0.6277 0.7463 -0.2215
vn -0.5773 0.5773 -0.5774
vn -0.3584 0.8492 -0.3879
vn 0.0000 0.9861 -0.1664
vn -0.9342 0.0000 0.3568
vn 0.3568 0.9342 0.0000
vn 0.6277 0.7463 0.2215
vn 0.5773 0.5774 0.5774
vn 0.7463 0.2215 0.6277
vn 0.3568 -0.9342 0.0000
vn 0.9342 0.0000 -0.3568
vn 0.9342 0.0000 0.3568
usemtl SpringMat
s 1
f 3/1/1 2/2/2 1/3/3
f 4/4/4 1/3/3 2/2/2
f 4/4/4 5/5/5 1/3/3
f 4/4/4 6/6/6 5/5/5
f 6/6/6 7/7/7 5/5/5
f 6/6/6 8/8/8 7/7/7
f 8/8/8 9/9/9 7/7/7
f 8/8/8 10/10/10 9/9/9
f 8/8/8 11/11/11 10/10/10
f 11/11/11 12/12/12 10/10/10
f 11/11/11 13/13/13 12/12/12
f 13/13/13 14/14/14 12/12/12
f 11/11/11 15/15/15 13/13/13
f 11/11/11 16/16/16 15/15/15
f 8/8/8 16/16/16 11/11/11
f 6/6/6 16/16/16 8/8/8
f 16/16/16 17/17/17 15/15/15
f 18/18/18 17/17/17 16/16/16
f 6/6/6 18/18/18 16/16/16
f 4/4/4 18/18/18 6/6/6
f 19/19/19 17/17/17 18/18/18
f 20/20/20 17/17/17 19/19/19
f 21/21/15 17/17/17 20/20/20
f 22/22/21 21/21/15 20/20/20
f 22/22/21 23/23/13 21/21/15
f 22/22/21 24/24/22 23/23/13
f 24/24/22 25/25/14 23/23/13
f 22/22/21 20/20/20 26/26/23
f 27/27/24 24/24/22 22/22/21
f 27/27/24 22/22/21 26/26/23
f 27/27/24 26/26/23 28/28/25
f 29/29/26 28/28/25 26/26/23
f 30/30/27 29/29/26 26/26/23
f 30/30/27 26/26/23 20/20/20
f 30/30/27 20/20/20 19/19/19
f 30/30/27 19/19/19 31/31/28
f 32/32/29 29/29/26 30/30/27
f 32/32/29 30/30/27 31/31/28
f 32/32/29 31/31/28 33/33/30
f 31/31/28 34/34/31 33/33/30
f 35/35/32 32/32/29 33/33/30
f 36/36/33 35/35/32 33/33/30
f 36/36/33 37/37/34 35/35/32
f 37/37/34 38/38/35 35/35/32
f 37/37/34 39/39/36 38/38/35
f 39/39/36 40/40/37 38/38/35
f 37/37/34 41/41/38 39/39/36
f 37/37/34 42/42/39 41/41/38
f 36/36/33 42/42/39 37/37/34
f 42/42/39 43/43/40 41/41/38
f 44/44/41 28/28/25 29/29/26
f 38/38/35 40/40/37 45/45/42
f 45/45/42 40/40/37 46/46/43
f 46/46/43 40/40/37 47/47/44
f 48/48/36 47/47/44 40/40/37
f 48/48/36 49/49/45 47/47/44
f 49/49/45 50/50/46 47/47/44
f 49/49/45 51/51/47 50/50/46
f 51/51/47 52/52/48 50/50/46
f 49/49/45 53/53/49 51/51/47
f 49/49/45 54/54/38 53/53/49
f 48/48/36 54/54/38 49/49/45
f 54/54/38 55/55/50 53/53/49
f 50/50/46 52/52/48 56/56/51
f 57/57/52 46/46/43 47/47/44
f 57/57/52 47/47/44 50/50/46
f 57/57/52 50/50/46 56/56/51
f 57/57/52 56/56/51 58/58/53
f 59/59/54 46/46/43 57/57/52
f 59/59/54 57/57/52 58/58/53
f 59/59/54 58/58/53 60/60/55
f 58/58/53 61/61/56 60/60/55
f 59/59/54 60/60/55 62/62/57
f 63/63/58 62/62/57 60/60/55
f 63/63/58 64/64/59 62/62/57
f 64/64/59 65/65/60 62/62/57
f 64/64/59 66/66/24 65/65/60
f 66/66/24 28/28/25 65/65/60
f 44/44/41 65/65/60 28/28/25
f 64/64/59 67/67/22 66/66/24
f 64/64/59 68/68/61 67/67/22
f 63/63/58 68/68/61 64/64/59
f 68/68/61 69/69/62 67/67/22
f 70/70/63 59/59/54 62/62/57
f 70/70/63 62/62/57 65/65/60
f 44/44/41 70/70/63 65/65/60
f 70/70/63 46/46/43 59/59/54
f 70/70/63 45/45/42 46/46/43
f 44/44/41 45/45/42 70/70/63
f 71/71/58 60/60/55 61/61/56
f 72/72/64 71/71/58 61/61/56
f 72/72/64 73/73/61 71/71/58
f 72/72/64 74/74/65 73/73/61
f 74/74/65 75/75/62 73/73/61
f 76/76/66 74/74/65 72/72/64
f 76/76/66 72/72/64 77/77/67
f 76/76/66 77/77/67 78/78/68
f 72/72/64 61/61/56 77/77/67
f 79/79/69 78/78/68 77/77/67
f 79/79/69 80/80/70 78/78/68
f 79/79/69 81/81/71 80/80/70
f 81/81/71 82/82/72 80/80/70
f 81/81/71 83/83/73 82/82/72
f 83/83/73 84/84/74 82/82/72
f 85/85/75 82/82/72 84/84/74
f 86/86/76 85/85/75 84/84/74
f 83/83/73 87/87/77 84/84/74
f 83/83/73 88/88/78 87/87/77
f 88/88/78 89/89/79 87/87/77
f 88/88/78 90/90/49 89/89/79
f 90/90/49 91/91/50 89/89/79
f 88/88/78 92/92/47 90/90/49
f 88/88/78 93/93/80 92/92/47
f 83/83/73 93/93/80 88/88/78
f 81/81/71 93/93/80 83/83/73
f 93/93/80 52/52/48 92/92/47
f 94/94/81 52/52/48 93/93/80
f 81/81/71 94/94/81 93/93/80
f 79/79/69 94/94/81 81/81/71
f 85/85/75 95/95/82 82/82/72
f 95/95/82 80/80/70 82/82/72
f 95/95/82 96/96/83 80/80/70
f 96/96/83 78/78/68 80/80/70
f 97/97/66 78/78/68 96/96/83
f 98/98/84 97/97/66 96/96/83
f 98/98/84 99/99/65 97/97/66
f 98/98/84 100/100/12 99/99/65
f 100/100/12 101/101/62 99/99/65
f 98/98/84 96/96/83 102/102/85
f 95/95/82 102/102/85 96/96/83
f 103/103/10 100/100/12 98/98/84
f 103/103/10 98/98/84 102/102/85
f 103/103/10 102/102/85 104/104/9
f 105/105/86 104/104/9 102/102/85
f 95/95/82 105/105/86 102/102/85
f 85/85/75 105/105/86 95/95/82
f 106/106/87 94/94/81 79/79/69
f 106/106/87 79/79/69 77/77/67
f 106/106/87 77/77/67 61/61/56
f 58/58/53 106/106/87 61/61/56
f 58/58/53 56/56/51 106/106/87
f 106/106/87 56/56/51 94/94/81
f 56/56/51 52/52/48 94/94/81
f 107/107/7 104/104/9 105/105/86
f 108/108/88 107/107/7 105/105/86
f 108/108/88 105/105/86 85/85/75
f 108/108/88 109/109/5 107/107/7
f 108/108/88 110/110/89 109/109/5
f 110/110/89 111/111/3 109/109/5
f 112/112/1 111/111/3 110/110/89
f 113/113/90 112/112/1 110/110/89
f 113/113/90 110/110/89 86/86/76
f 86/86/76 110/110/89 108/108/88
f 113/113/90 86/86/76 114/114/77
f 86/86/76 84/84/74 114/114/77
f 113/113/90 114/114/77 115/115/79
f 116/116/91 112/112/1 113/113/90
f 116/116/91 113/113/90 115/115/79
f 116/116/91 115/115/79 117/117/40
f 86/86/76 108/108/88 85/85/75
f 118/118/92 38/38/35 45/45/42
f 118/118/92 45/45/42 44/44/41
f 118/118/92 44/44/41 29/29/26
f 118/118/92 29/29/26 32/32/29
f 35/35/32 38/38/35 118/118/92
f 35/35/32 118/118/92 32/32/29
f 119/119/93 19/19/19 18/18/18
f 119/119/93 18/18/18 4/4/4
f 119/119/93 4/4/4 2/2/2
f 119/119/93 2/2/2 34/34/31
f 31/31/28 19/19/19 119/119/93
f 31/31/28 119/119/93 34/34/31
f 120/120/94 34/34/31 2/2/2
f 120/120/94 121/121/33 34/34/31
f 121/121/33 33/33/30 34/34/31
f 120/120/94 122/122/39 121/121/33
f 120/120/94 123/123/91 122/122/39
f 123/123/91 124/124/40 122/122/39
f 3/1/1 123/123/91 120/120/94
f 3/1/1 120/120/94 2/2/2
